<svg xmlns="http://www.w3.org/2000/svg"  viewBox="0 0 40 40" width="16px" height="16px"><path fill="#8bb7f0" d="M38.326,14.5c-2.375-5.861-8.113-10-14.826-10s-12.451,4.139-14.826,10H38.326z"/><path fill="#4e7ab5" d="M39.068,15H7.932l0.278-0.688C10.749,8.048,16.75,4,23.5,4s12.751,4.048,15.29,10.313L39.068,15z M9.435,14h28.131C35.031,8.508,29.59,5,23.5,5S11.969,8.508,9.435,14z"/><path fill="#8bb7f0" d="M8.024,16.5c-0.25,0.968-0.41,1.97-0.474,3H39.45c-0.064-1.03-0.224-2.032-0.474-3H8.024z"/><path fill="#4e7ab5" d="M39.981,20H7.019l0.033-0.53c0.064-1.048,0.229-2.089,0.488-3.095L7.637,16h31.727l0.097,0.375 c0.26,1.006,0.424,2.047,0.488,3.095L39.981,20z M8.092,19h30.816c-0.064-0.675-0.174-1.345-0.325-2H8.417 C8.266,17.655,8.156,18.325,8.092,19z"/><g><path fill="#8bb7f0" d="M38.976,24.5c0.25-0.968,0.41-1.97,0.474-3H7.55c0.064,1.03,0.224,2.032,0.474,3H38.976z"/><path fill="#4e7ab5" d="M39.363,25H7.637L7.54,24.625c-0.26-1.006-0.424-2.047-0.488-3.095L7.019,21h32.963l-0.033,0.53 c-0.064,1.048-0.229,2.089-0.488,3.095L39.363,25z M8.417,24h30.166c0.151-0.655,0.261-1.325,0.325-2H8.092 C8.156,22.675,8.266,23.345,8.417,24z"/></g><g><path fill="#8bb7f0" d="M8.674,26.5c2.375,5.861,8.113,10,14.826,10s12.451-4.139,14.826-10H8.674z"/><path fill="#4e7ab5" d="M23.5,37c-6.75,0-12.751-4.048-15.29-10.313L7.932,26h31.137l-0.278,0.688 C36.251,32.952,30.25,37,23.5,37z M9.435,27c2.534,5.492,7.976,9,14.065,9s11.531-3.508,14.065-9H9.435z"/></g><g><path fill="#f5ce85" d="M5.5,20.5c0-6.785,3.757-12.687,9.301-15.755C7.253,6.03,1.5,12.585,1.5,20.5 s5.753,14.47,13.301,15.755C9.257,33.187,5.5,27.285,5.5,20.5z"/><path fill="#ba9b48" d="M17.617,37.241l-2.9-0.493C6.769,35.395,1,28.562,1,20.5S6.769,5.605,14.717,4.252l2.9-0.493 l-2.574,1.424C9.465,8.269,6,14.138,6,20.5s3.465,12.231,9.043,15.317L17.617,37.241z M11.993,6.021C6.06,8.256,2,13.946,2,20.5 s4.06,12.244,9.993,14.479C7.619,31.502,5,26.188,5,20.5S7.619,9.498,11.993,6.021z"/></g><g><path fill="#b5ddf5" d="M12.838,27c2.196,3.593,6.143,6,10.662,6s8.467-2.407,10.662-6H12.838z"/></g></svg>