<?xml version="1.0" encoding="utf-8"?>
<svg fill="#f75c7e" height="800px" width="800px" version="1.1" id="Layer_1" xmlns="http://www.w3.org/2000/svg" xmlns:xlink="http://www.w3.org/1999/xlink" 
	 viewBox="0 0 512 512" xml:space="preserve">
<g>
	<g>
		<path d="M0,147.2v307.2c0,21.207,17.193,38.4,38.4,38.4h435.2c21.207,0,38.4-17.193,38.4-38.4V147.2H0z M64,198.4h179.2v38.4H64
			V198.4z M243.2,441.6H64v-38.4h179.2V441.6z M435.2,373.334H153.6v-38.4h281.6V373.334z M435.2,305.066H153.6v-38.4h281.6V305.066
			z"/>
	</g>
</g>
<g>
	<g>
		<path d="M473.6,19.2H38.4C17.193,19.2,0,36.393,0,57.6v51.2h512V57.6C512,36.393,494.807,19.2,473.6,19.2z M64,89.6
			c-14.139,0-25.6-11.461-25.6-25.6S49.861,38.4,64,38.4S89.6,49.861,89.6,64S78.139,89.6,64,89.6z M473.6,83.2H256V44.8h217.6V83.2
			z"/>
	</g>
</g>
</svg>
